# xmcd
#
# Track frame offsets:
#	150
#	29972
#	49234
#	91881
#	105693
#	129828
#	178447
#	216222
#	251504
#	288176
#
# Disc length: 4096 seconds
#
# Revision: 1
# Processed by: cddbd v1.5.2PL0 Copyright (c) Steve Scherf et al.
# Submitted via: audiograbber 1.83.01
#
DISCID=940ffe0a
DTITLE=Grateful Dead - 82-05-21 Greek Theatre, Uni of California, Berkeley CA
DYEAR=1900
DGENRE=
TTITLE0=Bertha
TTITLE1=Greatest Story Ever Told
TTITLE2=Friend Of The Devil
TTITLE3=Me and My Uncle
TTITLE4=Big River
TTITLE5=Bird Song
TTITLE6=CC Rider
TTITLE7=Althea
TTITLE8=Looks Like Rain
TTITLE9=Might As Well
EXTD=
EXTT0=
EXTT1=
EXTT2=
EXTT3=
EXTT4=
EXTT5=
EXTT6=
EXTT7=
EXTT8=
EXTT9=
PLAYORDER=
